<?xml version="1.0" standalone="no"?>
<!DOCTYPE svg PUBLIC "-//W3C//DTD SVG 1.1//EN" "http://www.w3.org/Graphics/SVG/1.1/DTD/svg11.dtd">
<svg xmlns="http://www.w3.org/2000/svg">
<metadata>Copyright (C) 2015 by original authors @ fontello.com</metadata>
<defs>
<font id="gothrive" horiz-adv-x="1000" >
<font-face font-family="gothrive" font-weight="400" font-stretch="normal" units-per-em="1000" ascent="850" descent="-150" />
<missing-glyph horiz-adv-x="1000" />
<glyph glyph-name="back_btn" unicode="&#xe800;" d="m508 797c-19 0-34-6-48-20l-384-376c-16-16-24-28-24-51 0-25 9-36 23-50l385-377c14-14 29-20 48-20 42 0 70 35 70 68 0 18-6 33-20 47l-223 219-98 91c-5 5-8 12-8 19-1 7 2 14 7 19l135 133 2 1 185 182c14 14 20 29 20 47 0 33-28 68-70 68z" horiz-adv-x="632" />
<glyph glyph-name="bag-active" unicode="&#xe801;" d="m650 626h-112l1 53 0 3c0 46-18 88-48 119-30 30-71 49-116 49v0c-44 0-84-17-114-45-31-29-50-69-50-114h0v-65h-111c-17 0-32-7-43-18v0l-2-2c-10-11-16-25-17-41l-38-651 0 0 0-3h0l0 0c0-17 7-32 18-43 10-10 25-17 40-18v0l3 0 1 0h626l4 0v0l3 0c14 2 27 8 37 18 11 11 18 26 18 43h-30l30 0 0 2h0l0 3-38 649c-1 17-8 32-19 43l-21-21 21 21-2 2c-11 10-25 16-41 16z m-171 0h-209l0 65h0c0 27 12 52 31 70 19 18 46 29 74 29v0c29 0 55-12 74-31 19-20 31-47 31-77l0-2-1-54z m-420-715l0 0h0l0 0z" horiz-adv-x="750" />
<glyph glyph-name="bag-inactive" unicode="&#xe802;" d="m650 626h-112l1 53 0 3c0 46-18 88-48 119-30 30-71 49-116 49v0c-44 0-84-17-114-45-31-29-50-69-50-114h0v-65h-111c-17 0-32-7-43-18v0l-2-2c-10-11-16-25-17-41l-38-651 0 0 0-3h0l0 0c0-17 7-32 18-43 10-10 25-17 40-18v0l3 0 1 0h626l4 0v0l3 0c14 2 27 8 37 18 11 11 18 26 18 43h-30l30 0 0 2h0l0 3-38 649c-1 17-8 32-19 43l-21-21 21 21-2 2c-11 10-25 16-41 16z m-439-60v-67c-19-9-32-29-32-52 0-31 25-57 57-57 31 0 56 26 56 57 0 19-8 35-22 46v73h209l-1-68c-17-10-29-29-29-51 0-31 25-57 57-57 31 0 56 26 56 57 0 20-9 38-25 48l1 71h112l1 0 0 0 0 0 0 0 2-4 38-650v-1h0v0l0 0 0 0-2-1 0 0v0h-1-626 0l-1 0-2 1 0 0 0 0h0l38 651 1 3 1 1m380 60h-209l0 65h0c0 27 12 52 31 70 19 18 46 29 74 29v0c29 0 55-12 74-31 19-20 31-47 31-77l0-2-1-54z m-420-715l0 0h0l0 0z" horiz-adv-x="750" />
<glyph glyph-name="beef" unicode="&#xe803;" d="m985 600c52 38 96 90 132 162l-84 42c-79-157-198-209-475-209-277 0-396 52-475 208l-84-41c36-72 79-124 131-162-26-26-42-61-42-99 0-77 62-140 139-141l205-517h252l205 517c77 1 139 64 139 141 0 38-16 73-43 99z m-98-146h-62l-205-517h-124l-206 517h-61c-26 0-47 21-47 47 0 18 11 35 28 43l12 5c93-38 205-48 336-48 131 0 243 10 336 48l12-5c17-8 28-25 28-43 0-26-21-47-47-47z" horiz-adv-x="1118" />
<glyph glyph-name="email" unicode="&#xe804;" d="m654 500h-312c-31 0-56-25-56-56v-188c0-31 25-56 56-56h312c31 0 57 25 57 56v188c0 31-26 56-57 56z m-18-69l-140-83-142 84c-5 3-13 1-16-4-3-6-1-13 4-16l148-88c2-1 4-1 6-1 2 0 4 0 6 1l146 87c5 3 7 10 4 16-3 5-11 7-16 4z m344-81h-20c0-127-51-242-135-325-83-84-198-135-325-135-127 0-242 51-325 135-83 83-135 198-135 325 0 127 52 242 135 325 83 84 198 135 325 135 127 0 242-51 325-135 84-83 135-198 135-325h20 20c0 276-224 500-500 500-276 0-500-224-500-500 0-276 224-500 500-500 276 0 500 224 500 500h-20z" horiz-adv-x="1000" />
<glyph glyph-name="facebook" unicode="&#xe805;" d="m410 414h38v38c0 17 0 43 12 59 12 17 29 29 58 29 48 0 68-7 68-7l-10-58c0 0-15 4-30 4-14 0-28-5-28-20v-45h60l-4-57h-56v-197h-70v197h-38v57z m570-64h-20c0-127-51-242-135-325-83-84-198-135-325-135-127 0-242 51-325 135-84 83-135 198-135 325 0 127 51 242 135 325 83 84 198 135 325 135 127 0 242-51 325-135 84-83 135-198 135-325h20 20c0 276-224 500-500 500-276 0-500-224-500-500 0-276 224-500 500-500 276 0 500 224 500 500h-20z" horiz-adv-x="1000" />
<glyph glyph-name="itwitter" unicode="&#xe806;" d="m687 464c-14-6-29-10-45-12 16 9 28 24 34 42-15-9-32-15-50-18-14 14-34 23-56 23-43 0-78-33-78-75 0-6 0-12 2-17-65 3-123 33-161 79-7-12-11-25-11-38 0-27 14-50 35-63-13 0-25 4-35 9v-1c0-36 27-67 62-74-6-1-13-2-20-2-5 0-10 0-15 1 10-30 39-52 73-52-27-20-60-32-97-32-6 0-12 0-19 1 35-22 76-34 120-34 143 0 222 115 222 214 0 3 0 7 0 10 15 11 28 24 39 39m293-114h-20c0-127-51-242-135-325-83-84-198-135-325-135-127 0-242 51-325 135-84 83-135 198-135 325 0 127 51 242 135 325 83 84 198 135 325 135 127 0 242-51 325-135 84-83 135-198 135-325h20 20c0 276-224 500-500 500-276 0-500-224-500-500 0-276 224-500 500-500 276 0 500 224 500 500h-20z" horiz-adv-x="1000" />
<glyph glyph-name="local" unicode="&#xe807;" d="m521 823c-267 0-484-217-484-484 0-266 217-483 484-483 266 0 483 217 483 483 0 267-217 484-483 484z m0-914c-238 0-431 193-431 430 0 238 193 431 431 431 237 0 430-193 430-431 0-237-193-430-430-430z m0 914v16c-276 0-500-224-500-500 0-275 224-500 500-500 275 0 500 225 500 500 0 276-225 500-500 500v-16-17c128 0 245-53 329-137 85-85 137-201 137-330 0-128-52-245-137-329-84-85-201-137-329-137-129 0-245 52-330 137-85 84-137 201-137 329 0 129 53 245 137 330 85 85 201 137 330 137v17z m0-914v17c-115 0-218 46-293 121-75 75-121 178-121 292 0 114 46 218 121 293 75 75 178 121 293 121 114 0 217-46 292-121 75-75 121-179 121-293 0-114-46-217-121-292-75-75-178-121-292-121v-17-17c246 0 447 201 447 447 0 247-201 448-447 448-247 0-448-201-448-448 0-246 201-447 448-447v17z m18 756c0 15-12 27-27 27-14 0-26-12-26-27v-140l53 28v112z m0 0h17c0 24-20 43-44 43-23 0-43-19-43-43v-167l87 44v123h-17-17v-102l-19-10v112c0 6 4 10 9 10 6 0 10-4 10-10h17z m-213-305h-146c-14 0-26-12-26-27 0-14 12-26 26-26h119l27 53z m0 0v17h-146c-24 0-43-20-43-44 0-23 20-43 43-43h130l44 87h-28v-17l-15 7-22-43h-109c-5 0-9 4-9 9 0 6 4 10 9 10h146v17l-15 7 15-7z m518 0h-116l-27-53h143c15 0 27 12 27 26 0 15-12 27-27 27z m0 0v17h-126l-45-87h171c24 0 43 20 43 43 0 24-19 44-43 44v-17-17c5 0 10-4 10-10 0-5-4-9-10-9h-116l10 19h106v17z m-358-359c0-14 12-26 26-26 15 0 27 12 27 26v150l-53-27v-123z m0 0h-17c0-23 19-43 43-43 24 0 44 20 44 43v177l-87-44v-133h17 17v113l19 9v-122c0-5-4-9-10-9-5 0-9 4-9 9h-17z m298 606c-8 8-21 10-31 5l-322-166c-5-3-9-6-12-11l-166-323c-5-10-3-22 5-30 5-5 12-8 19-8 4 0 8 1 12 3l322 166c5 2 10 9 13 13l165 320c5 11 3 23-5 31z m-204-321l-242-125 124 242 242 124-124-241z m204 321l12 12c-9 8-20 13-31 13-7 0-13-2-20-5l-322-166 0 0c-8-4-14-11-18-19l-166-322 0 0c-4-6-5-13-5-20 0-11 4-22 13-30l0 0c8-8 19-13 30-13 7 0 13 2 19 5l1 0 322 166c5 3 9 6 12 10 3 3 6 7 8 11l0 0 165 320c3 6 4 13 4 19 0 12-4 23-12 31l-12-12-12-12 3-7-1-4-165-320 0 0-3-4-2-2 0 0-1 0 1-1 0 1 0 0 0-1 0 1-323-166 8-15-8 15-4-1-7 3 0 0-3 6 1 5 0 0 166 322 0 0 5 4-1 0 323 166 4 1 7-3 12 12z m-204-321l-8 15-195-101 98 191 190 98-100-195 15-8-8 15 8-15 15-8 148 288-293-150-151-294 293 151 3 5-15 8z m-249 239c16 16 16 41 0 56-15 16-40 16-55 0-16-15-16-40 0-56 15-16 40-16 55 0z m0 0l12-12c11 11 17 26 17 40 0 15-6 29-17 40-11 11-25 17-40 17-14 0-29-6-39-17l0 0c-11-11-17-25-17-40 0-14 6-29 17-40l0 0c10-11 25-16 39-16 15 0 29 5 40 16l0 0-12 12-12 12c-4-5-10-7-16-7-5 0-11 2-15 7l0 0c-5 4-7 10-7 16 0 6 2 12 7 17l0 0c4 4 10 6 15 6 6 0 12-2 16-6 5-5 7-11 7-17 0-6-2-12-7-16l0 0 12-12z m211-211c16 16 16 41 0 56-15 16-40 16-55 0-16-15-16-40 0-56 15-16 40-16 55 0z m0 0l12-12c11 11 17 26 17 40 0 15-6 29-17 40-11 11-25 17-39 17-15 0-29-6-40-17l0 0c-11-11-17-25-17-40 0-14 6-29 17-40 11-11 25-17 40-17 14 0 29 6 39 17l-12 12-12 12c-4-5-10-7-15-7-6 0-12 2-16 7-5 4-7 10-7 16 0 6 2 12 7 16l0 1c4 4 10 6 16 6 5 0 11-2 15-6 5-5 7-11 7-17 0-6-2-12-7-16l12-12z m169-168c-15-16-15-41 0-57 16-15 40-15 56 0 15 16 15 41 0 57-16 16-40 15-56 0z m0 0l-12 12c-11-11-16-26-16-41 0-14 5-28 16-39 11-11 26-17 40-17 14 0 29 6 40 17 11 11 16 25 16 40 0 14-5 29-16 40l0 0c-11 11-26 16-40 16-14 0-29-5-40-16l12-12 12-12c5 5 10 7 16 7 6 0 11-2 16-7l0 0c4-4 6-10 7-16-1-6-3-12-7-17-5-4-10-6-16-6-6 0-11 2-16 6-4 5-6 10-6 17 0 6 2 12 6 16l-12 12z" horiz-adv-x="1000" />
<glyph glyph-name="organic" unicode="&#xe808;" d="m930 834c-204 0-381-123-458-300-77 177-254 300-458 300h-42v-41c0-262 202-477 458-499l84-1v1c256 22 458 237 458 499v41h-42z m-872-85c194-21 349-176 370-371-195 21-350 176-370 371z m458-371c20 195 176 350 370 371-20-195-175-350-370-371z m-377-210c0-184 149-334 333-334 184 0 333 150 333 334v83h-666v-83z m583 0c0-138-112-251-250-251-138 0-250 113-250 251h500z" horiz-adv-x="1000" />
<glyph glyph-name="poultry" unicode="&#xe809;" d="m130 509c-3 0-6 1-9 2-14 8-31 17-42 41-11 26-11 57 0 81 10 22 26 39 46 50 10 5 21 8 32 8-1 6-2 11-2 16-3 24 9 52 21 70 21 33 61 55 99 55 49 1 92-26 108-68 23-55-10-99-37-134-6-8-19-10-28-4-9 7-11 20-4 29 27 36 44 62 32 94-11 26-38 43-69 43h-1c-25 0-52-16-66-37-8-12-16-31-15-44 1-16 9-32 13-36 9-6 11-18 5-27-6-10-19-12-28-5h0c-11 7-28 12-41 5-12-7-22-18-28-31-7-15-6-33 0-49 5-10 11-15 23-21 10-5 14-17 9-27-3-7-10-11-18-11z m0 0v18l-1 0 0 0c-14 7-25 14-34 33-4 10-7 22-7 33 0 12 3 23 7 33 9 18 22 32 38 41l0 0c7 4 16 6 25 6l22 1-5 21c-2 6-2 10-3 14l0 4c0 17 9 40 19 54 17 28 53 47 85 47l0 0 2 0c41 0 75-22 89-57 4-10 6-20 6-29 0-16-5-30-13-45-7-14-18-28-28-42l-2-1-2 1 0 1 0 2 0 0c11 14 20 27 28 41 7 13 12 27 12 43 0 9-2 19-6 28-13 33-47 54-85 54h-1 0c-16 0-32-5-46-13-14-8-26-19-35-32-4-7-9-15-12-24-3-8-6-17-6-27l0-5 18 2-18-2c1-10 4-19 7-27 2-4 3-7 5-11 2-3 3-5 7-9l1-1 1 0 1-2-1-1 1 0-3-1-1 0-5 3h-5v-17l10 14c-10 7-23 12-36 12-8 0-16-2-23-6l0 0c-16-8-28-22-36-39-5-10-7-20-7-30 0-11 2-22 7-33l0 0c3-7 8-13 13-18 6-5 12-8 18-12l2-2-1-1 0 0-2-1v-18-18c14 0 28 8 34 22l0 0c3 5 4 11 4 16 0 14-8 28-21 34-6 3-9 5-10 6-2 2-3 3-4 7l0 0c-3 5-4 11-4 18 0 5 1 11 3 15 5 10 12 18 21 23l0 0c1 1 3 1 5 1 5 0 12-2 17-5l4-3h6v18l-10-15c6-5 14-7 21-7 12 0 24 6 32 16l0 1c4 6 7 14 7 21 0 12-6 24-17 31l-10-15 12 14-5-6 6 5-1 1-5-6 6 5c-1 0-3 4-5 9-1 5-3 11-3 16l0 0v0 1c0 2 1 8 3 14 3 6 6 13 9 17 5 8 13 16 23 21 9 5 20 8 28 8l0 18v-18h1c25 0 45-13 52-31 2-6 3-11 3-15 0-8-2-16-8-26-5-11-14-23-24-37l0 0c-6-6-8-15-8-22 0-12 5-24 15-31 7-5 15-7 23-7 11 0 23 5 30 15 11 13 22 29 32 46 9 18 17 39 17 62 0 13-3 28-9 43-20 48-68 79-122 79l-3 0 0 0c-45-1-89-25-114-63-12-19-24-46-25-74 0-2 1-5 1-8 0-5 1-11 3-18l17 4 0 18c-14 0-28-4-41-11l0 0c-23-12-42-33-53-57-7-15-10-31-10-48 0-16 3-32 10-48 12-29 35-42 50-50l1 0c5-2 11-4 16-4v18z m165-641c-12 0-29 4-45 20-38 38-11 120 8 180 4 11 7 21 9 28 16 63 19 128 9 177-9 46-26 82-53 112-29 25-68 35-96 39-3 0-16 1-27 2l-13 1c-61 5-61 5-67 16-3 6-3 13 0 19 10 19 49 45 132 94 13 8 25 16 35 22 9 5 19 12 29 20 44 31 103 74 186 77 112 2 163-48 206-124 42-77 193-298 305-326 11-2 18-13 15-24-3-11-14-17-25-15-136 34-296 281-331 345-43 79-87 106-169 103-70-1-121-38-163-68-11-8-21-16-32-22-9-7-22-14-35-22-22-13-60-36-87-54l4-1 13-1c17-1 26-2 29-2 34-5 82-17 119-50l1-2c33-35 54-78 64-131 11-55 7-126-10-194-2-9-6-19-9-31-13-39-39-119-18-140 8-8 13-8 17-8 10 1 22 10 32 24 11 14 19 29 23 42 1 5 3 11 4 16 1 7 3 14 5 21 0 1 1 4 1 7 2 9 4 19 10 27 4 6 11 9 18 8 7-1 13-5 16-12 3-6 5-11 8-17 5-13 9-23 17-34 20-27 62-35 92-18 42 25 56 108 38 158l0 1v0c-4 10 2 22 12 25 11 4 22-2 26-12v0 0l0 0c11-30 37-63 78-56 9 1 17 7 23 18 11 19 12 47 4 66-4 10 1 22 11 26 11 5 22 0 27-10 13-31 10-72-7-102-12-21-30-35-51-38-28-5-54 2-76 17-3-50-23-103-64-127-48-29-114-16-146 28l-4 7c-1-4-2-7-3-11-7-22-20-42-29-54-10-14-32-38-62-40l-4 0z m0 0v18c-9 0-19 2-32 14-10 10-14 25-14 45 0 34 14 80 26 117 4 12 7 22 9 30l0 0c10 41 16 83 16 121 0 22-2 44-6 64-10 48-29 87-58 119l-1 1 0 1c-34 29-76 39-106 44-2 0-6 0-11 1-5 0-11 0-17 1l-13 1c-30 2-45 4-51 5l-2 1-2-5 4 3-2 2-2-5 4 3-2-2 2 2 0 0-2-2 2 2-1 2 0 0 0 1 0 1 0 0c2 5 12 16 33 30 21 15 51 33 92 58l0 0c13 8 26 15 35 21l0 0c10 7 20 14 31 22 43 31 99 71 176 73 2 0 5 0 8 0 50 0 85-12 112-31 28-19 49-48 69-84 22-40 71-115 129-184 29-35 60-68 92-95 32-26 64-47 96-55l2-2 0-1 0 0-3-1 0 0c-30 7-64 27-97 55-101 84-198 235-224 281-21 39-44 68-72 86-29 19-63 26-103 26-3 0-6 0-9 0-77-2-132-42-173-72-11-8-22-16-31-21l0 0c-9-6-22-14-35-22-23-13-61-36-88-55l-41-28 53-5 0 0 14-1c17-1 26-2 28-2l0 0c32-4 77-16 109-46l12 14-12-13 1-2 12 13-13-12c30-33 50-72 60-123 4-19 6-41 6-64 0-38-6-81-16-122l0 0c-2-7-5-18-9-30l0 0c-5-14-11-34-17-55-5-21-9-43-9-62 0-8 0-15 2-21 2-7 5-14 11-20 4-4 9-8 14-10 5-2 10-3 14-3l2 0 0 0 0 0c10 1 18 5 25 10 8 6 14 13 21 21 11 16 20 32 25 48 2 6 3 12 4 18l0 1 0-1c1 6 3 12 5 18l-17 6 16-6 2 5 1 4 0 2 0-1c1 9 3 16 6 19l0 0 2 1 0 0 0 0 2-1c2-6 5-11 7-17l0 0c5-12 10-25 19-38 17-22 44-34 71-34 16 0 31 4 45 12 20 12 33 31 41 53 9 22 13 47 13 71 0 20-3 38-8 55l0 0-1 1-16-6h17v0 3l-1 3 0 0 2 3 1 0 2-2 17 6h-18v0 0-3l1-3 1-2-1 2c6-16 15-33 29-46 14-13 33-23 56-23 4 0 8 0 13 1 7 1 15 5 21 9 6 5 11 11 14 18 8 15 12 31 12 48 0 12-2 23-6 34l0 1 1 2 0 0 1 0 2-1c5-10 7-23 7-36 0-18-4-36-12-50-10-17-24-27-39-30-5 0-9-1-14-1-17 0-34 6-49 16l-26 18-2-32c-1-23-6-47-16-67-9-20-22-36-39-46-15-8-31-12-48-12-29 0-58 13-75 36l-14-10 15 9-5 7-23 34-9-40c-1-3-2-6-2-9-6-19-18-38-27-50l0 0c-4-6-11-14-20-20-8-7-18-12-28-12l1-18-1 18-4 0 1-18v18-18l0-18 4 0 1 0 0 0c20 2 36 10 48 19 12 10 21 20 27 28l0 0c10 14 24 35 32 60 1 4 2 8 3 12l-18 4-14-10 4-6 0-1 0 0c25-33 65-51 104-51 23 0 45 5 66 17 24 15 42 37 53 62 12 25 18 53 20 80l-18 1-10-14c20-14 44-22 69-22 6 0 13 0 19 1 28 5 51 22 65 48 11 20 17 44 17 67 0 17-3 34-10 50-6 14-20 23-35 23-5 0-10-1-15-3l0 0c-14-6-23-20-23-35 0-5 1-10 3-15 2-5 3-12 3-20 0-11-2-23-7-30-2-4-4-7-6-8l-4-2c-3 0-5 0-7 0-13 0-22 4-31 13-9 8-16 20-20 32l0 0 0 0-17-6h18v0 0 3l-1 3c-6 16-21 25-36 25-4 0-9 0-13-2-15-5-25-20-25-36 0-4 0-8 2-12l17 6h-18v0-3l1-4 0 1c4-12 6-28 6-44 0-20-3-41-10-58-7-17-16-30-26-35-8-5-17-7-27-7-17 0-33 7-42 20-6 8-10 17-15 30l0 0c-2 5-5 11-8 18-5 12-17 20-30 21l-2-17 2 17-4 1c-12 0-23-6-30-15l0 0c-10-13-12-26-14-35l0 0 0-4-1-1 0 0 7-2-6 2-1 0 7-2-6 2-1 0c-2-8-3-16-5-22l0 0c-1-6-2-11-3-15-3-10-10-24-20-37-4-5-9-10-13-13l-4-3-2 0 1-18-1 18 0 0v-2l0 2 0 0v-2l0 2 0-2 0 2 0 0 0-2 0 2-3 2-1 1c0 2-2 7-2 15 0 14 4 34 9 53 5 20 11 39 16 53l0 0c3 12 7 23 9 32l0 0c11 44 17 89 17 131 0 25-2 49-6 71-11 56-34 103-69 140l0 1-2 2 0 0 0 0c-41 36-93 49-128 54l-1 0c-4 1-12 2-29 3l-14 1 0 0-3 0-2-17 10-15c26 18 64 40 86 54 14 8 26 15 36 21l0 0c11 7 22 15 33 23 41 30 89 64 153 66 2 0 5 0 8 0 36 0 61-7 83-21 22-14 41-37 61-73 19-34 68-112 130-187 31-38 66-74 102-104 36-30 73-53 111-63 3-1 6-1 9-1 17 0 33 11 37 29l0 0c1 3 1 6 1 9 0 17-11 32-28 37-24 5-53 23-82 48-89 74-182 212-213 268-21 39-45 72-79 96-34 24-77 38-133 38-3 0-6 0-10-1-88-2-152-48-195-79-11-8-21-15-29-20l0 0c-9-6-21-13-34-21l0 0c-42-25-72-44-94-60-22-15-36-27-45-42l0 0c-3-5-4-12-4-18 0-6 2-12 5-18l15 9-15-9c1-2 3-7 8-11 3-3 8-5 12-6 6-2 12-3 22-4 9-1 21-2 38-4l14-1c5 0 11-1 16-1 3 0 5 0 6-1l2 0 1 0 0 0c26-3 63-13 87-35l12 13-13-12c24-27 40-59 49-102 3-17 5-36 5-57 0-35-5-74-15-112l0 0c-1-6-4-16-8-28-12-38-28-85-28-128 0-25 6-51 25-70 19-20 41-25 57-25h0l0 0 0 18z m40 602c-18-17-46-17-64 0-17 18-17 46 0 63 18 18 46 18 64 0 17-17 17-45 0-63z m0 0l-13 13c-5-5-12-8-19-8-7 0-14 3-19 8-5 5-8 12-8 19 0 7 3 13 8 19 5 5 12 7 19 7 7 0 14-2 19-7 5-6 8-12 8-19 0-7-3-14-8-19l13-13 12-12c12 12 19 28 19 44 0 16-7 32-19 44-12 12-28 18-44 18-16 0-32-6-44-18-12-12-19-28-19-44 0-16 7-32 19-44 12-12 28-18 44-18 16 0 32 6 44 18l-12 12z" horiz-adv-x="946" />
<glyph glyph-name="profile" unicode="&#xe80a;" d="m500 354c62 0 111 78 111 145 0 64-44 104-111 104-67 0-110-40-110-104 0-67 48-145 110-145z m0 205c26 0 69-8 69-60 0-44-33-101-69-101-36 0-69 57-69 101 0 52 43 60 69 60z m88-210c-23 4-44-6-53-26l-34-71-35 71c-7 15-23 24-43 24-4 0-9 0-13-1-12-3-47-21-63-45-25-40-34-80-47-174-1-10 5-20 15-24 2-1 60-20 184-20 125 0 185 26 188 27 9 4 14 13 13 23-11 80-35 142-46 164-22 44-48 49-66 52z m-89-221c-80 0-130 8-154 13 11 78 19 107 37 135 8 12 32 25 38 27l3 0c4 0 6-1 6 0l43-89c13-27 45-27 58 0l42 89c1 3 4 3 10 2 13-2 23-4 35-29 7-14 27-63 39-130-25-7-76-18-157-18z m501 215c0-276-224-500-500-500-276 0-500 224-500 500 0 277 224 500 500 500 276 0 500-223 500-500h-20-20c0 127-51 242-135 326-83 83-198 134-325 134-127 0-242-51-325-134-83-84-135-199-135-326 0-127 52-242 135-325 83-83 198-135 325-135 127 0 242 52 325 135 84 83 135 198 135 325h20 20z" horiz-adv-x="1000" />
<glyph glyph-name="settings" unicode="&#xe80b;" d="m976 298h24v126l-32 10 0 0-105 35-23 55 62 131-101 101-29-15-99-51-55 23-49 137h-143l-10-32 0 0-35-105-54-23-132 62-101-101 15-29 51-99-23-55-137-49v-143l32-10 105-35 23-54-62-132 101-101 29 15 99 51 55-23 49-137h143l10 32 35 105 55 23 131-62 101 101-15 29 0 0-51 99 23 55 137 49v17h-24l-8 23-141-51-39-95 60-118 0 0 7-14 22 10-17 17-65-65-120 57-95-39-41-127-5-15 23-7v24h-92l-45 125-95 39-118-60-15-8 11-21 17 17-65 65 57 120-39 95-126 41-16 5-7-22h24v91l125 45 39 95-60 118-7 15-22-11 17-17 65 65 120-57 95 39 41 126 0 1 5 15-22 7v-24h91l45-125 95-39 118 60 15 7-11 22-17-17 65-65-57-120 39-95 127-41 0 0 15-5 7 23h-24v-109h24l-8 23 8-23z m-476-100v24c-35 0-67 14-90 38-24 23-38 55-38 90 0 35 14 67 38 91 23 23 55 37 90 37 35 0 67-14 91-37 23-24 37-56 37-91 0-35-14-67-37-90-24-24-56-38-91-38v-24-24c97 0 176 79 176 176 0 97-79 176-176 176-97 0-176-79-176-176 0-97 79-176 176-176v24z" horiz-adv-x="1000" />
<glyph glyph-name="walk-active" unicode="&#xe80c;" d="m371 850c46 0 83-37 83-83 0-46-37-83-83-83-45 0-83 37-83 83 0 46 38 83 83 83z m-35-189c-22 0-40-9-40-9s-150-87-160-92c-10-5-19-22-19-22l-70-133c-6-7-9-16-9-26 0-24 19-43 42-43 20 0 37 14 41 33l66 124 41 23c-3-9-40-193-40-193l-39-218-133-162c-10-8-16-21-16-35 0-28 22-50 49-50 17 0 31 9 40 21 25 29 148 174 160 188 13 16 16 24 18 34 2 11 24 144 24 144l127-127v-223h0c3-26 24-45 49-45s47 19 49 45h1v4 1l-1 1c0 34-1 203 1 242 1 42-14 52-18 56-3 4-121 129-121 129l26 126c0 0 34-66 37-73 4-8 14-21 26-23 11-3 151-31 151-31l1 0 6-1c23 0 42 19 42 42 0 22-17 40-38 42-23 4-115 20-120 22-6 2 0 0-2 3-2 3-82 173-90 181-8 9-30 32-60 42-7 2-14 3-21 3" horiz-adv-x="667" />
<glyph glyph-name="walk-inactive" unicode="&#xe80d;" d="m371 850c46 0 83-37 83-83 0-46-37-83-83-83-45 0-83 37-83 83 0 46 38 83 83 83z m-35-189c-22 0-40-9-40-9s-150-87-160-92c-10-5-19-22-19-22l-70-133c-6-7-9-16-9-26 0-24 19-43 42-43 20 0 37 14 41 33l66 124 41 23c-3-9-40-193-40-193l-39-218-133-162c-10-8-16-21-16-35 0-28 22-50 49-50 17 0 31 9 40 21 25 29 148 174 160 189 13 15 16 23 18 33 2 11 24 144 24 144l127-127v-223h0c3-26 24-45 49-45s47 19 49 45h1v4 1l0 1c-1 34-2 203 0 242 1 42-14 52-18 56-3 4-121 129-121 129l26 126c0 0 34-66 37-73 4-8 14-21 26-23 11-3 151-31 151-31l1 0 6-1c23 0 42 19 42 42 0 22-17 40-38 42-23 4-115 20-120 22-6 2 0 0-2 3-2 3-82 172-90 181-8 9-30 32-60 42-7 2-15 3-21 3" horiz-adv-x="667" />
<glyph glyph-name="location_icon" unicode="&#xe80e;" d="m595-150c-1 0-2 0-3 0-13 1-24 11-26 23l-90 412-435 113c-13 3-22 14-22 26-1 13 6 25 18 30l941 370c11 5 24 2 32-7 8-8 11-21 6-32l-394-917c-5-11-16-18-27-18z m-451 582l365-94c11-3 19-12 21-23l74-339 329 767-789-311z" horiz-adv-x="1031" />
<glyph glyph-name="icons__gluten-free_mono" unicode="&#xe80f;" d="m682 217c-139 0-259-84-311-203-52 119-172 203-310 203h-29v-28c0-177 137-323 311-338l56-1v1c174 15 311 161 311 338v28h-28z m-592-58c132-14 237-119 251-251-132 14-237 119-251 251z m311-251c14 132 119 237 251 251-14-132-119-237-251-251z m279 629c-145 0-270-88-325-213-55 125-180 213-325 213h-30v-30c0-185 144-338 325-353l59-2v2c182 15 326 168 326 353v30h-30z m-619-61c138-14 248-125 263-263-138 15-249 125-263 263z m325-263c15 138 125 249 263 263-15-138-125-248-263-263z m88 422c-1 84-43 160-111 215-68-55-110-131-110-215 0-85 43-161 111-215 68 54 110 131 110 215z" horiz-adv-x="715" />
<glyph glyph-name="icons__non-dairymono" unicode="&#xe810;" d="m324 286l-82 112v-112h-50v194h51l79-107v107h50v-194h-48z m-142-131c0 59 44 100 104 100s103-41 103-100c0-59-44-100-103-100s-104 41-104 100z m156 0c0 31-21 56-52 56-33 0-53-25-53-56 0-32 20-56 53-56 31 0 52 24 52 56z m222-258h-515v717l84 84v112h516v-125l-85-85v-703z m-482 33h449v684l85 84v79h-450v-92l-84-85v-670z m651-33h-202v717l101 101 101-101v-717z m-169 33h136v670l-68 68-68-68v-670z" horiz-adv-x="771" />
<glyph glyph-name="icons__nut-free_mono" unicode="&#xe811;" d="m391-60c-161 0-288 179-288 407 0 14 13 26 29 26 15 0 28-12 28-26 0-196 104-355 231-355 128 0 232 159 232 355 0 14 13 26 28 26 16 0 28-12 28-26 0-228-126-407-288-407z m0 361c-120 0-233 18-329 53-7 3-13 8-16 16-8 22-12 44-12 66 0 142 160 257 357 257 198 0 358-115 358-257 0-22-4-44-12-66-3-8-9-13-17-16-95-35-208-53-329-53z m-295 96c86-29 188-44 295-44s210 15 296 44c4 13 6 27 6 39 0 114-135 206-302 206-166 0-301-92-301-206 0-13 2-26 6-39z m295 265c-15 0-28 12-28 26v101c0 15 13 26 28 26 16 0 29-11 29-26v-101c0-14-13-26-29-26z" horiz-adv-x="783" />
<glyph glyph-name="icons__veg" unicode="&#xe812;" d="m773 327c-2 5-5 9-10 11-4 2-9 2-13 0-1-1-32-15-82-24-17-4-35-5-54-7-42-3-86-6-131-33-41-23-65-61-78-100-14 39-37 77-78 100-45 27-89 30-131 33-19 2-37 3-55 7-49 9-81 23-81 24-4 2-9 2-14 0-4-2-8-6-9-11-2-5-36-116 9-202 21-40 56-68 104-83 21-7 48-10 76-13 28-4 48-13 76-20 14-3 27-8 38-18 8-8 17-21 20-33 3-11 3-21 4-32 0-8 0-17 0-25 0-4-2-9 0-13 5-20 39-16 52-7 14 11 8 27 9 42 1 12 2 24 6 35 5 13 20 22 31 29 18 10 37 14 56 19 22 6 43 13 66 15 28 4 55 11 76 17 47 15 82 45 103 85 45 86 11 200 10 204z m-543-265c-27 4-52 7-70 12-39 12-67 34-84 67-29 55-18 126-11 158 15-5 39-13 70-19 19-4 39-5 58-6 40-4 78-6 117-29 52-30 70-91 75-137 2-10 2-24 3-38-1-19-1-39 0-55-17 12-39 26-69 33-30 7-61 11-89 14z m503 79c-17-33-45-55-83-67-18-5-44-8-71-12-27-3-59-7-89-14-29-7-52-21-68-33 0 16 0 36 0 55 0 15 1 28 2 38 6 46 24 107 76 137 38 23 76 25 117 29 19 1 38 2 58 6 30 6 54 14 70 19 7-32 17-103-12-158z m-343 187c1-3 4-6 8-8 2-1 5-1 7-1 4 0 8 2 11 4 55 50 89 83 101 97 51 61 71 122 57 176-12 48-43 77-70 103-15 14-29 27-39 42-22 31-38 60-44 72-1 6-6 11-12 13-8 2-16-2-19-9-5-9-21-41-45-75-10-15-24-28-39-42-27-26-59-55-71-103-13-54 7-115 58-175 12-14 44-46 97-94z m-122 261c10 38 35 62 61 87 16 14 31 29 44 47 13 18 23 35 31 50 9-15 20-33 33-52 12-17 28-32 43-47 27-25 52-48 61-86 14-55-20-110-50-146-7-8-28-30-85-82-59 54-80 75-87 84-31 36-64 91-51 145z" horiz-adv-x="810" />
<glyph glyph-name="icons__vegan" unicode="&#xe813;" d="m500 797c-247 0-447-200-447-447 0-247 200-447 447-447 247 0 447 200 447 447 0 247-200 447-447 447z m0-846c-220 0-398 179-398 399 0 220 178 399 398 399 220 0 399-179 399-399 0-220-179-399-399-399z m17 701c0 13-11 24-25 24-13 0-24-11-24-24v-130l49 25v105z m-197-283h-135c-13 0-24-11-24-25s11-24 24-24h110l25 49z m480 0h-108l-25-49h133c13 0 24 11 24 24s-11 25-24 25z m-332-332c0-13 11-24 24-24 14 0 25 11 25 24v139l-49-26v-113z m276 561c-8 7-19 9-29 4l-298-153c-5-3-8-6-11-11l-153-298c-5-10-3-21 4-29 5-4 11-7 17-7 4 0 8 1 12 3l298 154c5 2 9 8 12 12l152 297c5 9 3 20-4 28z m-189-298l-224-115 115 224 224 115-115-224z m-230 222c14 14 14 38 0 52-14 15-38 15-52 0-14-14-14-38 0-52 14-15 37-14 52 0z m195-196c14 15 14 38 0 53-14 14-37 14-51 0-15-15-15-38 0-53 14-14 37-14 51 0z m157-155c-15-15-15-38 0-52 14-15 37-15 51 0 14 14 14 37 0 52-14 14-37 14-51 0z" horiz-adv-x="1000" />
</font>
</defs>
</svg>
